<?xml version="1.0" standalone="no"?>
<!DOCTYPE svg PUBLIC "-//W3C//DTD SVG 20010904//EN"
 "http://www.w3.org/TR/2001/REC-SVG-20010904/DTD/svg10.dtd">
<svg version="1.0" xmlns="http://www.w3.org/2000/svg"
 width="100.000000pt" height="100.000000pt" viewBox="0 0 100.000000 100.000000"
 preserveAspectRatio="xMidYMid meet">
<metadata>
Created by potrace 1.14, written by Peter Selinger 2001-2017
</metadata>
<g transform="translate(0.000000,100.000000) scale(0.100000,-0.100000)"
fill="#000000" stroke="none">
<path d="M103 668 c-22 -25 -46 -87 -35 -89 4 -1 23 -2 42 -3 33 -1 37 2 60
49 19 38 31 51 51 53 28 3 37 -10 76 -113 22 -56 21 -66 -9 -145 -41 -108 -77
-118 -118 -33 -24 52 -26 53 -67 53 -24 0 -43 -2 -43 -5 0 -14 33 -81 47 -97
13 -15 33 -18 118 -18 93 0 103 2 122 23 20 22 103 220 103 247 1 25 16 -9 24
-50 24 -135 38 -195 48 -207 7 -8 35 -13 74 -13 57 0 65 2 74 23 7 17 28 86
35 117 13 60 29 118 35 128 4 8 27 -42 57 -125 l50 -138 50 -3 51 -3 -62 169
c-34 93 -67 176 -75 186 -17 21 -123 23 -140 2 -6 -7 -26 -69 -43 -137 -35
-133 -34 -133 -54 -19 -12 72 -33 153 -42 162 -5 5 -38 8 -73 6 -54 -3 -65 -6
-75 -25 l-11 -23 -21 25 c-21 24 -28 25 -125 25 -95 0 -105 -2 -124 -22z"/>
</g>
</svg>
